<svg version="1.1" xmlns="http://www.w3.org/2000/svg" xmlns:xlink="http://www.w3.org/1999/xlink" viewBox="0 0 172 172"><g fill="none" fill-rule="nonzero" stroke="none" stroke-width="1" stroke-linecap="butt" stroke-linejoin="miter" stroke-miterlimit="10" stroke-dasharray="" stroke-dashoffset="0" font-family="none" font-weight="none" font-size="none" text-anchor="none" style="mix-blend-mode: normal"><path d="M0,172v-172h172v172z" fill="none"></path><g><path d="M2.65391,86c0,-46.02344 37.32266,-83.34609 83.34609,-83.34609c46.02344,0 83.34609,37.32266 83.34609,83.34609c0,46.02344 -37.32266,83.34609 -83.34609,83.34609c-46.02344,0 -83.34609,-37.32266 -83.34609,-83.34609z" fill="#25b7d3"></path><path d="M135.18125,53.48125l-16.6625,-16.6625c-3.59453,-3.59453 -9.43984,-3.59453 -13.03437,0l-25.73281,25.73281c-3.59453,3.59453 -3.59453,9.43984 0,13.03438l16.6625,16.6625c3.59453,3.59453 9.43984,3.59453 13.03437,0l25.73281,-25.73281c3.59453,-3.59453 3.59453,-9.40625 0,-13.03438zM107.66797,81.73359c-2.11641,2.11641 -5.54297,2.11641 -7.65937,0l-9.77578,-9.77578c-2.11641,-2.11641 -2.11641,-5.54297 0,-7.65937l16.96484,-16.96484c2.11641,-2.11641 5.54297,-2.11641 7.65937,0l9.77578,9.77578c2.11641,2.11641 2.11641,5.54297 0,7.65937zM92.28203,96.38047l-16.6625,-16.6625c-3.59453,-3.59453 -9.43984,-3.59453 -13.03437,0l-25.73281,25.73281c-3.59453,3.59453 -3.59453,9.43984 0,13.03438l16.6625,16.6625c3.59453,3.59453 9.43984,3.59453 13.03438,0l25.73281,-25.73281c3.59453,-3.59453 3.59453,-9.43984 0,-13.03438zM64.76875,124.63281c-2.11641,2.11641 -5.54297,2.11641 -7.65937,0l-9.74219,-9.77578c-2.11641,-2.11641 -2.11641,-5.54297 0,-7.65937l16.96484,-16.96484c2.11641,-2.11641 5.54297,-2.11641 7.65937,0l9.77578,9.77578c2.11641,2.11641 2.11641,5.54297 0,7.65937z" fill="#ffffff"></path><path d="M105.75313,67.05312l-0.80625,-0.80625c-2.58672,-2.58672 -6.81953,-2.58672 -9.43984,0l-29.29375,29.29375c-2.58672,2.58672 -2.58672,6.81953 0,9.43984l0.80625,0.80625c2.58672,2.58672 6.81953,2.58672 9.43984,0l29.29375,-29.29375c2.62031,-2.62031 2.62031,-6.85313 0,-9.43984z" fill="#3498db"></path><path d="M75.01484,104.30859c-1.78047,1.78047 -4.70312,1.78047 -6.51719,0l-0.80625,-0.80625c-1.78047,-1.78047 -1.78047,-4.70312 0,-6.51719l29.29375,-29.29375c1.78047,-1.78047 4.70313,-1.78047 6.51719,0l0.80625,0.80625c1.78047,1.78047 1.78047,4.70313 0,6.51719z" fill="#ffffff"></path></g></g></svg>